<svg width="849" height="479" viewBox="0 0 849 479" fill="none" xmlns="http://www.w3.org/2000/svg">
<rect width="849" height="479" fill="#F5F5F5"/>
<rect width="849" height="479" fill="#CCEDC3"/>
<path d="M80 191L89.5525 201.235" stroke="#66A870" stroke-opacity="0.7" stroke-width="7" stroke-linecap="round"/>
<line x1="101.03" y1="203.015" x2="111.31" y2="176.97" stroke="#66A870" stroke-opacity="0.7" stroke-width="7" stroke-linecap="round"/>
<path d="M109 27L118.552 37.2348" stroke="#66A870" stroke-opacity="0.7" stroke-width="7" stroke-linecap="round"/>
<line x1="130.03" y1="39.0148" x2="140.31" y2="12.9704" stroke="#66A870" stroke-opacity="0.7" stroke-width="7" stroke-linecap="round"/>
<path d="M262 95L271.552 105.235" stroke="#66A870" stroke-opacity="0.7" stroke-width="7" stroke-linecap="round"/>
<line x1="283.03" y1="107.015" x2="293.31" y2="80.9705" stroke="#66A870" stroke-opacity="0.7" stroke-width="7" stroke-linecap="round"/>
<path d="M386 37L395.552 47.2348" stroke="#66A870" stroke-opacity="0.7" stroke-width="7" stroke-linecap="round"/>
<line x1="407.03" y1="49.0148" x2="417.31" y2="22.9704" stroke="#66A870" stroke-opacity="0.7" stroke-width="7" stroke-linecap="round"/>
<path d="M354.851 422L345.298 432.235" stroke="#66A870" stroke-opacity="0.7" stroke-width="7" stroke-linecap="round"/>
<line x1="3.5" y1="-3.5" x2="31.5" y2="-3.5" transform="matrix(-0.367167 -0.930155 -0.930155 0.367167 331.851 438.555)" stroke="#66A870" stroke-opacity="0.7" stroke-width="7" stroke-linecap="round"/>
<path d="M325.851 258L316.298 268.235" stroke="#66A870" stroke-opacity="0.7" stroke-width="7" stroke-linecap="round"/>
<line x1="3.5" y1="-3.5" x2="31.5" y2="-3.5" transform="matrix(-0.367167 -0.930155 -0.930155 0.367167 302.851 274.555)" stroke="#66A870" stroke-opacity="0.7" stroke-width="7" stroke-linecap="round"/>
<path d="M172.851 326L163.298 336.235" stroke="#66A870" stroke-opacity="0.7" stroke-width="7" stroke-linecap="round"/>
<line x1="3.5" y1="-3.5" x2="31.5" y2="-3.5" transform="matrix(-0.367167 -0.930155 -0.930155 0.367167 149.851 342.555)" stroke="#66A870" stroke-opacity="0.7" stroke-width="7" stroke-linecap="round"/>
<path d="M48.8508 268L39.2984 278.235" stroke="#66A870" stroke-opacity="0.7" stroke-width="7" stroke-linecap="round"/>
<line x1="3.5" y1="-3.5" x2="31.5" y2="-3.5" transform="matrix(-0.367167 -0.930155 -0.930155 0.367167 25.8508 284.555)" stroke="#66A870" stroke-opacity="0.7" stroke-width="7" stroke-linecap="round"/>
<path d="M409 413L418.552 423.235" stroke="#66A870" stroke-opacity="0.7" stroke-width="7" stroke-linecap="round"/>
<line x1="430.03" y1="425.015" x2="440.31" y2="398.97" stroke="#66A870" stroke-opacity="0.7" stroke-width="7" stroke-linecap="round"/>
<path d="M439 249L448.552 259.235" stroke="#66A870" stroke-opacity="0.7" stroke-width="7" stroke-linecap="round"/>
<line x1="460.03" y1="261.015" x2="470.31" y2="234.97" stroke="#66A870" stroke-opacity="0.7" stroke-width="7" stroke-linecap="round"/>
<path d="M592 317L601.552 327.235" stroke="#66A870" stroke-opacity="0.7" stroke-width="7" stroke-linecap="round"/>
<line x1="613.03" y1="329.015" x2="623.31" y2="302.97" stroke="#66A870" stroke-opacity="0.7" stroke-width="7" stroke-linecap="round"/>
<path d="M716 259L725.552 269.235" stroke="#66A870" stroke-opacity="0.7" stroke-width="7" stroke-linecap="round"/>
<line x1="737.03" y1="271.015" x2="747.31" y2="244.97" stroke="#66A870" stroke-opacity="0.7" stroke-width="7" stroke-linecap="round"/>
<path d="M812.851 90L803.298 100.235" stroke="#66A870" stroke-opacity="0.7" stroke-width="7" stroke-linecap="round"/>
<line x1="3.5" y1="-3.5" x2="31.5" y2="-3.5" transform="matrix(-0.367167 -0.930155 -0.930155 0.367167 789.851 106.555)" stroke="#66A870" stroke-opacity="0.7" stroke-width="7" stroke-linecap="round"/>
<path d="M659.851 158L650.298 168.235" stroke="#66A870" stroke-opacity="0.7" stroke-width="7" stroke-linecap="round"/>
<line x1="3.5" y1="-3.5" x2="31.5" y2="-3.5" transform="matrix(-0.367167 -0.930155 -0.930155 0.367167 636.851 174.555)" stroke="#66A870" stroke-opacity="0.7" stroke-width="7" stroke-linecap="round"/>
<path d="M535.851 100L526.298 110.235" stroke="#66A870" stroke-opacity="0.7" stroke-width="7" stroke-linecap="round"/>
<line x1="3.5" y1="-3.5" x2="31.5" y2="-3.5" transform="matrix(-0.367167 -0.930155 -0.930155 0.367167 512.851 116.555)" stroke="#66A870" stroke-opacity="0.7" stroke-width="7" stroke-linecap="round"/>
<path d="M49 361L58.5525 371.235" stroke="#66A870" stroke-opacity="0.7" stroke-width="7" stroke-linecap="round"/>
<line x1="70.0295" y1="373.015" x2="80.3102" y2="346.97" stroke="#66A870" stroke-opacity="0.7" stroke-width="7" stroke-linecap="round"/>
<path d="M202 429L211.552 439.235" stroke="#66A870" stroke-opacity="0.7" stroke-width="7" stroke-linecap="round"/>
<line x1="223.03" y1="441.015" x2="233.31" y2="414.97" stroke="#66A870" stroke-opacity="0.7" stroke-width="7" stroke-linecap="round"/>
<path d="M360 158L369.552 168.235" stroke="#66A870" stroke-opacity="0.7" stroke-width="7" stroke-linecap="round"/>
<line x1="381.03" y1="170.015" x2="391.31" y2="143.97" stroke="#66A870" stroke-opacity="0.7" stroke-width="7" stroke-linecap="round"/>
<path d="M462.177 298.703L469.588 310.58" stroke="#66A870" stroke-opacity="0.7" stroke-width="7" stroke-linecap="round"/>
<line x1="480.51" y1="314.53" x2="495.598" y2="290.943" stroke="#66A870" stroke-opacity="0.7" stroke-width="7" stroke-linecap="round"/>
<path d="M603.177 430.703L610.588 442.58" stroke="#66A870" stroke-opacity="0.7" stroke-width="7" stroke-linecap="round"/>
<line x1="621.51" y1="446.53" x2="636.598" y2="422.943" stroke="#66A870" stroke-opacity="0.7" stroke-width="7" stroke-linecap="round"/>
<path d="M730.226 356.555L744.214 357.145" stroke="#66A870" stroke-opacity="0.7" stroke-width="7" stroke-linecap="round"/>
<line x1="753.641" y1="350.361" x2="742.692" y2="324.59" stroke="#66A870" stroke-opacity="0.7" stroke-width="7" stroke-linecap="round"/>
<path d="M658.177 33.7026L665.588 45.5804" stroke="#66A870" stroke-opacity="0.7" stroke-width="7" stroke-linecap="round"/>
<line x1="676.51" y1="49.53" x2="691.598" y2="25.9428" stroke="#66A870" stroke-opacity="0.7" stroke-width="7" stroke-linecap="round"/>
<path d="M215.177 178.703L222.588 190.58" stroke="#66A870" stroke-opacity="0.7" stroke-width="7" stroke-linecap="round"/>
<line x1="233.51" y1="194.53" x2="248.598" y2="170.943" stroke="#66A870" stroke-opacity="0.7" stroke-width="7" stroke-linecap="round"/>
<path d="M42.1773 78.7026L49.5879 90.5804" stroke="#66A870" stroke-opacity="0.7" stroke-width="7" stroke-linecap="round"/>
<line x1="60.51" y1="94.53" x2="75.5979" y2="70.9428" stroke="#66A870" stroke-opacity="0.7" stroke-width="7" stroke-linecap="round"/>
<path d="M752.177 430.703L759.588 442.58" stroke="#66A870" stroke-opacity="0.7" stroke-width="7" stroke-linecap="round"/>
<line x1="770.51" y1="446.53" x2="785.598" y2="422.943" stroke="#66A870" stroke-opacity="0.7" stroke-width="7" stroke-linecap="round"/>
</svg>
